# xmcd
#
# Track frame offsets: 
#        150
#        25649
#        64630
#        88236
#        119446
#        152079
#        178715
#
# Disc length: 3060 seconds
#
# Revision: 1
# Processed by: cddbd v1.5.2PL0 Copyright (c) Steve Scherf et al.
# Submitted via: ExactAudioCopy v0.99pb5
#
DISCID=530bf207
DTITLE=Saattue - J‰‰hyv‰sti
DYEAR=2008
DGENRE=SaattoMetalli
TTITLE0=Ikiuneen
TTITLE1=Vieraaseen Multaan
TTITLE2=Luutarhuri
TTITLE3=Hyiseen Veteen
TTITLE4=J‰‰hyv‰sti
TTITLE5=Kaaosmaa
TTITLE6=Varjojen Saattue
EXTD=
EXTT0=
EXTT1=
EXTT2=
EXTT3=
EXTT4=
EXTT5=
EXTT6=
PLAYORDER=
